# xmcd
#
# Track frame offsets:
#	150
#	12880
#	30850
#	41035
#	57362
#	67162
#	82065
#	90497
#	107402
#	118790
#	132440
#	145110
#	159160
#
# Disc length: 2262 seconds
#
# Revision: 1
# Processed by: cddbd v1.5.2PL0 Copyright (c) Steve Scherf et al.
# Submitted via: audiograbber 1.83.01
#
DISCID=a508d40d
DTITLE=Mickey Harris - Find My Way
DYEAR=2003
DGENRE=Bluegrass
TTITLE0=Icy Cold
TTITLE1=The Flood On Stoney Creek
TTITLE2=Pray Pray Pray
TTITLE3=Lord He's So Weary
TTITLE4=That's What Makes Me Feel This Way
TTITLE5=Little Peach Tree
TTITLE6=Fire On The Mountain
TTITLE7=Now She's Gone
TTITLE8=Drink Up And Go Home
TTITLE9=The Pattern
TTITLE10=Fit To Be Tied Down
TTITLE11=I Will Always Find My Way To You
TTITLE12=I'm Walkin'
EXTD=
EXTT0=
EXTT1=
EXTT2=
EXTT3=
EXTT4=
EXTT5=
EXTT6=
EXTT7=
EXTT8=
EXTT9=
EXTT10=
EXTT11=
EXTT12=
PLAYORDER=
